<svg width="50" height="50" viewBox="0 0 50 50" fill="none" xmlns="http://www.w3.org/2000/svg">
<path d="M32.4896 8.75977H17.5104C12.6771 8.75977 8.75972 12.6778 8.75972 17.5105V32.4896C8.75972 37.323 12.6778 41.2403 17.5111 41.2403H32.4889C37.3222 41.2403 41.2403 37.3223 41.2403 32.4889V17.5105C41.2403 12.6771 37.3229 8.75977 32.4896 8.75977Z" fill="#DE7A88"/>
<path d="M32.4896 8.75977H17.5104C12.6771 8.75977 8.75972 12.6778 8.75972 17.5105V32.4896C8.75972 37.323 12.6778 41.2403 17.5111 41.2403H32.4889C37.3222 41.2403 41.2403 37.3223 41.2403 32.4889V17.5105C41.2403 12.6771 37.3229 8.75977 32.4896 8.75977Z" fill="black" fill-opacity="0.1"/>
<path d="M32.4896 8.75977H17.5104C12.6771 8.75977 8.75972 12.6778 8.75972 17.5105V32.4896C8.75972 37.323 12.6778 41.2403 17.5111 41.2403H32.4889C37.3222 41.2403 41.2403 37.3223 41.2403 32.4889V17.5105C41.2403 12.6771 37.3229 8.75977 32.4896 8.75977Z" stroke="white" stroke-width="2" stroke-miterlimit="10"/>
<path d="M25 32.8402C29.3301 32.8402 32.8403 29.33 32.8403 24.9999C32.8403 20.6699 29.3301 17.1597 25 17.1597C20.6699 17.1597 17.1597 20.6699 17.1597 24.9999C17.1597 29.33 20.6699 32.8402 25 32.8402Z" stroke="white" stroke-width="2" stroke-miterlimit="10"/>
<path d="M34.5201 17.1598C35.4479 17.1598 36.2 16.4077 36.2 15.4799C36.2 14.5521 35.4479 13.8 34.5201 13.8C33.5924 13.8 32.8403 14.5521 32.8403 15.4799C32.8403 16.4077 33.5924 17.1598 34.5201 17.1598Z" fill="white"/>
</svg>
