<svg width="21" height="21" viewBox="0 0 21 21" fill="none" xmlns="http://www.w3.org/2000/svg">
<path d="M6.99984 2.16663H13.9998C16.6665 2.16663 18.8332 4.33329 18.8332 6.99996V14C18.8332 15.2818 18.3239 16.5112 17.4175 17.4176C16.5111 18.3241 15.2817 18.8333 13.9998 18.8333H6.99984C4.33317 18.8333 2.1665 16.6666 2.1665 14V6.99996C2.1665 5.71808 2.67573 4.4887 3.58215 3.58228C4.48858 2.67585 5.71796 2.16663 6.99984 2.16663ZM6.83317 3.83329C6.03752 3.83329 5.27446 4.14936 4.71185 4.71197C4.14924 5.27458 3.83317 6.03764 3.83317 6.83329V14.1666C3.83317 15.825 5.17484 17.1666 6.83317 17.1666H14.1665C14.9622 17.1666 15.7252 16.8506 16.2878 16.2879C16.8504 15.7253 17.1665 14.9623 17.1665 14.1666V6.83329C17.1665 5.17496 15.8248 3.83329 14.1665 3.83329H6.83317ZM14.8748 5.08329C15.1511 5.08329 15.4161 5.19304 15.6114 5.38839C15.8068 5.58374 15.9165 5.84869 15.9165 6.12496C15.9165 6.40123 15.8068 6.66618 15.6114 6.86153C15.4161 7.05688 15.1511 7.16663 14.8748 7.16663C14.5986 7.16663 14.3336 7.05688 14.1383 6.86153C13.9429 6.66618 13.8332 6.40123 13.8332 6.12496C13.8332 5.84869 13.9429 5.58374 14.1383 5.38839C14.3336 5.19304 14.5986 5.08329 14.8748 5.08329ZM10.4998 6.33329C11.6049 6.33329 12.6647 6.77228 13.4461 7.55368C14.2275 8.33508 14.6665 9.39489 14.6665 10.5C14.6665 11.605 14.2275 12.6648 13.4461 13.4462C12.6647 14.2276 11.6049 14.6666 10.4998 14.6666C9.39477 14.6666 8.33496 14.2276 7.55356 13.4462C6.77216 12.6648 6.33317 11.605 6.33317 10.5C6.33317 9.39489 6.77216 8.33508 7.55356 7.55368C8.33496 6.77228 9.39477 6.33329 10.4998 6.33329ZM10.4998 7.99996C9.8368 7.99996 9.20091 8.26335 8.73207 8.73219C8.26323 9.20103 7.99984 9.83692 7.99984 10.5C7.99984 11.163 8.26323 11.7989 8.73207 12.2677C9.20091 12.7366 9.8368 13 10.4998 13C11.1629 13 11.7988 12.7366 12.2676 12.2677C12.7364 11.7989 12.9998 11.163 12.9998 10.5C12.9998 9.83692 12.7364 9.20103 12.2676 8.73219C11.7988 8.26335 11.1629 7.99996 10.4998 7.99996Z" fill="black"/>
</svg>
