<svg width="21" height="21" viewBox="0 0 21 21" fill="none" xmlns="http://www.w3.org/2000/svg">
<path d="M2.16683 18C1.93072 18 1.73267 17.92 1.57267 17.76C1.41267 17.6 1.33294 17.4022 1.3335 17.1667C1.3335 16.9306 1.4135 16.7325 1.5735 16.5725C1.7335 16.4125 1.93128 16.3328 2.16683 16.3333H18.8335C19.0696 16.3333 19.2677 16.4133 19.4277 16.5733C19.5877 16.7333 19.6674 16.9311 19.6668 17.1667C19.6668 17.4028 19.5868 17.6008 19.4268 17.7608C19.2668 17.9208 19.0691 18.0006 18.8335 18H2.16683ZM3.8335 15.5C3.37517 15.5 2.98267 15.3367 2.656 15.01C2.32933 14.6833 2.16628 14.2911 2.16683 13.8333V4.66667C2.16683 4.20833 2.33017 3.81583 2.65683 3.48917C2.9835 3.1625 3.37572 2.99945 3.8335 3H17.1668C17.6252 3 18.0177 3.16333 18.3443 3.49C18.671 3.81667 18.8341 4.20889 18.8335 4.66667V13.8333C18.8335 14.2917 18.6702 14.6842 18.3435 15.0108C18.0168 15.3375 17.6246 15.5006 17.1668 15.5H3.8335ZM3.8335 13.8333H17.1668V4.66667H3.8335V13.8333Z" fill="black"/>
</svg>
