<svg width="141" height="40" viewBox="0 0 141 40" fill="none" xmlns="http://www.w3.org/2000/svg">
<path d="M7.25671 0.139187C4.37045 1.34817 1.19797 4.75935 0.19592 9.04439C-1.07329 14.4718 4.20745 16.7677 4.64092 16.0159C5.15065 15.1316 3.69468 14.8326 3.39492 12.0163C3.00758 8.37884 4.69867 4.31455 6.8271 2.53118C7.22217 2.19965 7.20366 2.66103 7.20366 3.5139C7.20366 5.03922 7.1194 18.7326 7.1194 21.5904C7.1194 25.4571 6.95971 26.6783 6.67266 27.885C6.38229 29.1076 5.91483 29.9339 6.26874 30.2522C6.66437 30.608 8.35352 29.7612 9.33126 28.3967C10.5038 26.76 10.9143 24.7941 10.9881 22.6598C11.0771 20.0866 11.0732 16.0032 11.0771 13.6742C11.0804 11.5383 11.113 5.28372 11.0395 1.52361C11.0215 0.600844 8.46376 -0.366674 7.25671 0.139187ZM109.739 18.2361C109.646 20.2466 109.201 21.8177 108.649 22.9262C107.58 25.072 105.361 25.7381 104.419 22.6537C103.906 20.9723 103.882 18.1643 104.251 15.8179C104.626 13.4278 105.676 11.6226 107.413 11.7853C109.126 11.9464 109.928 14.1538 109.739 18.2361ZM80.8547 30.7089C80.8315 34.049 80.3057 36.9776 79.1785 37.8285C77.5794 39.0347 75.4303 38.1296 75.8754 35.6923C76.2691 33.5354 78.1314 31.3327 80.8594 28.6412C80.8594 28.6412 80.8649 29.2551 80.8547 30.7089ZM80.4182 18.2165C80.3204 20.0476 79.8457 21.8868 79.3277 22.9262C78.2585 25.072 76.024 25.7428 75.0979 22.6537C74.4647 20.543 74.6164 17.8117 74.9294 16.0905C75.3361 13.8574 76.3218 11.7856 78.0914 11.7856C79.812 11.7856 80.6607 13.6734 80.4182 18.2165ZM63.6855 18.1889C63.5805 20.1278 63.2023 21.7487 62.5953 22.9262C61.4969 25.0573 59.3237 25.7331 58.3656 22.6537C57.6746 20.4333 57.9097 17.4059 58.197 15.7703C58.6236 13.3432 59.6917 11.6226 61.359 11.7856C63.0716 11.953 63.9041 14.1541 63.6855 18.1889ZM140.367 20.4538C139.948 20.4538 139.757 20.8853 139.599 21.6114C139.051 24.1376 138.474 24.7076 137.731 24.7076C136.901 24.7076 136.155 23.4572 135.963 20.9535C135.813 18.9848 135.837 15.3606 136.029 11.7555C136.069 11.0148 135.865 10.2818 133.878 9.5602C133.023 9.24966 131.78 8.79243 131.162 10.286C129.414 14.5058 128.729 17.8559 128.568 19.2163C128.56 19.2868 128.474 19.3014 128.459 19.1368C128.356 18.0468 128.127 16.0659 128.098 11.9047C128.093 11.0927 127.921 10.4017 127.025 9.83592C126.443 9.46848 124.677 8.81923 124.042 9.59197C123.491 10.2235 122.853 11.9237 122.19 13.9395C121.651 15.5778 121.276 16.6856 121.276 16.6856C121.276 16.6856 121.283 12.2658 121.289 10.5891C121.292 9.95666 120.858 9.74586 120.727 9.70773C120.139 9.53699 118.979 9.2516 118.486 9.2516C117.878 9.2516 117.73 9.59087 117.73 10.086C117.73 10.1509 117.634 15.9052 117.634 19.9288C117.634 20.1037 117.634 20.2943 117.635 20.4971C117.299 22.3465 116.209 24.8568 115.024 24.8568C113.837 24.8568 113.277 23.8075 113.277 19.0105C113.277 16.2121 113.361 14.9951 113.402 12.9711C113.426 11.8052 113.473 10.9101 113.47 10.707C113.461 10.084 112.384 9.76989 111.883 9.65386C111.379 9.53699 110.941 9.49141 110.6 9.51102C110.116 9.53865 109.774 9.85554 109.774 10.2921C109.774 10.5263 109.776 10.9711 109.776 10.9711C109.153 9.99202 108.151 9.31072 107.485 9.11318C105.689 8.57997 103.815 9.0524 102.402 11.0303C101.278 12.6014 100.601 14.3815 100.335 16.9384C100.14 18.808 100.203 20.7035 100.55 22.3067C100.131 24.1158 99.3547 24.8568 98.504 24.8568C97.2691 24.8568 96.3739 22.8416 96.4778 19.3556C96.5463 17.0627 97.0052 15.4537 97.5067 13.1258C97.7205 12.1334 97.5467 11.614 97.111 11.1162C96.7113 10.6595 95.8595 10.426 94.6356 10.7128C93.7637 10.9175 92.5169 11.1377 91.3761 11.3068C91.3761 11.3068 91.4452 11.0319 91.5015 10.5479C91.7983 8.00891 89.0391 8.21474 88.1586 9.02561C87.6334 9.50992 87.2756 10.081 87.14 11.1076C86.9245 12.7371 88.2534 13.5057 88.2534 13.5057C87.8177 15.5015 86.7488 18.1085 85.6453 19.9935C85.0544 21.0033 84.6024 21.7517 84.0186 22.5471C83.9996 19.3551 84.0204 16.1629 84.081 12.9714C84.1051 11.8055 84.1518 10.9341 84.1493 10.7308C84.1427 10.2755 83.8766 10.1031 83.3232 9.88538C82.8337 9.69254 82.2551 9.55937 81.6548 9.5124C80.8972 9.45383 80.4408 9.85526 80.453 10.3305C80.4552 10.4202 80.4552 10.9711 80.4552 10.9711C79.8322 9.99202 78.8301 9.31072 78.1635 9.11318C76.3677 8.57997 74.494 9.0524 73.0806 11.0303C71.9575 12.6014 71.2221 14.8067 71.0135 16.9191C70.8195 18.8876 70.8552 20.5604 71.1198 21.97C70.8344 23.3812 70.0134 24.857 69.0853 24.857C67.8985 24.857 67.2232 23.8075 67.2232 19.0105C67.2232 16.2121 67.3072 14.9951 67.3487 12.9711C67.3727 11.8055 67.4188 10.9101 67.4164 10.707C67.4075 10.084 66.3303 9.77017 65.8289 9.65386C65.3045 9.5323 64.8517 9.48809 64.5039 9.51378C64.0452 9.54777 63.7225 9.95859 63.7225 10.265V10.9711C63.0995 9.99202 62.0975 9.31072 61.4308 9.11318C59.635 8.57997 57.7718 9.06014 56.3479 11.0303C55.4196 12.3147 54.6679 13.7386 54.2811 16.8909C54.1692 17.8018 54.1197 18.6552 54.1264 19.4523C53.7562 21.7166 52.1206 24.3263 50.7832 24.3263C50.0005 24.3263 49.2548 22.8079 49.2548 19.5724C49.2548 15.2625 49.5217 9.12589 49.567 8.53466C49.567 8.53466 51.257 8.50593 51.5841 8.50206C52.4273 8.49267 53.1906 8.51284 54.3137 8.45509C54.8767 8.42664 55.4193 6.40513 54.8381 6.1551C54.5745 6.04182 52.7127 5.94292 51.9745 5.92717C51.3539 5.91335 49.6261 5.78516 49.6261 5.78516C49.6261 5.78516 49.7811 1.71203 49.8173 1.28186C49.8477 0.922982 49.3835 0.73843 49.1178 0.626538C48.4707 0.353025 47.8919 0.221794 47.2059 0.0803404C46.2578 -0.115263 45.8279 0.0761963 45.7439 0.876015C45.6174 2.09025 45.5519 5.64675 45.5519 5.64675C44.8562 5.64675 42.4797 5.51082 41.784 5.51082C41.1375 5.51082 40.4397 8.29126 41.3337 8.32552C42.362 8.3653 44.1542 8.40012 45.3422 8.43548C45.3422 8.43548 45.2891 14.6732 45.2891 16.5994C45.2891 16.8039 45.2902 17.0014 45.2913 17.1929C44.6374 20.6007 42.3344 22.4418 42.3344 22.4418C42.8289 20.1872 41.8186 18.4939 39.9987 17.0605C39.3282 16.5326 38.0046 15.5327 36.5237 14.437C36.5237 14.437 37.3813 13.5916 38.1422 11.8909C38.6809 10.6857 38.7044 9.30741 37.3813 9.00323C35.1954 8.5004 33.3932 10.1058 32.8556 11.8199C32.439 13.1476 32.6611 14.1326 33.4772 15.1559C33.5366 15.2308 33.6016 15.3073 33.6679 15.3841C33.1747 16.335 32.4967 17.6156 31.9226 18.6085C30.3291 21.3657 29.1253 23.5461 28.2156 23.5461C27.4884 23.5461 27.4981 21.332 27.4981 19.2591C27.4981 17.4722 27.6301 14.7854 27.7357 12.0041C27.7705 11.0841 27.3102 10.56 26.5394 10.0854C26.0708 9.79697 25.071 9.23005 24.4919 9.23005C23.625 9.23005 21.1241 9.34802 18.7614 16.1831C18.4636 17.0445 17.8784 18.6143 17.8784 18.6143L17.929 10.3948C17.929 10.202 17.8262 10.0158 17.5911 9.88841C17.193 9.67209 16.1296 9.23005 15.1839 9.23005C14.7336 9.23005 14.5084 9.43947 14.5084 9.8572L14.4261 22.7167C14.4261 23.6939 14.4515 24.8338 14.5482 25.3322C14.6443 25.8312 14.8004 26.2373 14.9933 26.4788C15.1864 26.72 15.4093 26.9043 15.7771 26.98C16.1194 27.0504 17.9936 27.291 18.0911 26.5749C18.2077 25.7163 18.2124 24.788 19.1965 21.3251C20.7288 15.9339 22.7262 13.3037 23.6656 12.3694C23.8299 12.2064 24.0173 12.1964 24.0081 12.4636C23.9684 13.6455 23.8272 16.5994 23.7324 19.108C23.478 25.8229 24.6994 27.0675 26.4452 27.0675C27.7807 27.0675 29.6632 25.7406 31.6812 22.3816C32.8055 20.5097 33.9247 18.6347 35.0387 16.7566C35.6501 17.3227 36.3367 17.9319 37.0224 18.5828C38.6165 20.0957 39.1398 21.5334 38.7925 22.8971C38.5273 23.9395 37.5269 25.014 35.7468 23.9699C35.228 23.6652 35.0064 23.4295 34.4848 23.0861C34.2047 22.9018 33.7767 22.8466 33.5201 23.04C32.8537 23.5422 32.4724 24.1816 32.2547 24.9728C32.0431 25.7428 32.8142 26.1497 33.6137 26.5059C34.3019 26.8123 35.7814 27.0899 36.7246 27.1214C40.4004 27.2443 43.3453 25.3466 45.3952 20.4513C45.7621 24.6791 47.3236 27.0714 50.0369 27.0714C51.851 27.0714 53.6697 24.7266 54.4651 22.42C54.6933 23.3602 55.0315 24.178 55.468 24.8695C57.5586 28.182 61.6143 27.4692 63.6515 24.6562C64.2814 23.787 64.3773 23.4748 64.3773 23.4748C64.6746 26.1307 66.8135 27.0587 68.038 27.0587C69.4097 27.0587 70.8256 26.4103 71.8183 24.1758C71.9346 24.4183 72.0617 24.6501 72.2003 24.8695C74.2909 28.182 78.3469 27.4692 80.3842 24.6562C80.4803 24.5241 80.5638 24.4048 80.6364 24.297L80.6961 26.0417L78.8205 27.7621C75.6765 30.6437 73.2883 32.829 73.1126 35.3743C72.8888 38.6197 75.5195 39.826 77.5126 39.984C79.6253 40.1517 81.4379 38.9836 82.5502 37.3489C83.5293 35.9097 84.1703 32.8127 84.123 29.754C84.1045 28.529 84.0733 26.9717 84.0493 25.3021C85.153 24.0205 86.3965 22.4004 87.5414 20.5046C88.7891 18.4383 90.1262 15.6634 90.8109 13.5038C90.8109 13.5038 91.9726 13.514 93.2125 13.4328C93.609 13.4068 93.7231 13.488 93.6496 13.7784C93.5612 14.1298 92.0831 19.8302 93.4322 23.6276C94.3552 26.2274 96.4364 27.0634 97.6702 27.0634C99.1149 27.0634 100.497 25.9727 101.237 24.3531C101.326 24.5335 101.42 24.7081 101.522 24.8698C103.612 28.1823 107.654 27.4648 109.705 24.6562C110.168 24.0224 110.431 23.4748 110.431 23.4748C110.871 26.2238 113.009 27.0728 114.234 27.0728C115.509 27.0728 116.719 26.5498 117.701 24.226C117.743 25.2494 117.807 26.0859 117.909 26.3495C117.971 26.5111 118.334 26.7133 118.597 26.8111C119.764 27.2438 120.954 27.0394 121.394 26.9504C121.699 26.8885 121.937 26.6437 121.97 26.0122C122.055 24.3531 122.003 21.5658 122.506 19.494C123.35 16.0176 124.137 14.6691 124.511 14.0016C124.72 13.6273 124.956 13.5656 124.964 13.9616C124.982 14.7628 125.022 17.1147 125.349 20.2753C125.589 22.5993 125.91 23.9732 126.157 24.4084C126.86 25.6516 127.729 25.7105 128.437 25.7105C128.887 25.7105 129.829 25.5861 129.745 24.7949C129.704 24.4092 129.775 22.0255 130.608 18.6005C131.151 16.3638 132.057 14.3431 132.384 13.6041C132.505 13.3316 132.561 13.5463 132.559 13.5883C132.49 15.1285 132.336 20.1667 132.963 22.9223C133.814 26.6551 136.275 27.0728 137.132 27.0728C138.963 27.0728 140.46 25.6803 140.964 22.0164C141.086 21.1345 140.906 20.4538 140.367 20.4538Z" fill="black"/>
</svg>
