<svg width="124" height="35" viewBox="0 0 124 35" fill="none" xmlns="http://www.w3.org/2000/svg">
<path d="M6.35004 0.121789C3.82457 1.17965 1.04865 4.16443 0.171857 7.91384C-0.938703 12.6629 3.68194 14.6717 4.06124 14.0139C4.50725 13.2401 3.23327 12.9786 2.97098 10.5143C2.63206 7.33149 4.11176 3.77523 5.97414 2.21479C6.31983 1.9247 6.30363 2.32841 6.30363 3.07466C6.30363 4.40932 6.2299 16.391 6.2299 18.8916C6.2299 22.275 6.09017 23.3435 5.839 24.3994C5.58493 25.4691 5.17591 26.1922 5.48558 26.4706C5.83175 26.782 7.30976 26.0411 8.16528 24.8471C9.19123 23.415 9.55046 21.6948 9.615 19.8273C9.69285 17.5758 9.68946 14.0028 9.69285 11.9649C9.69575 10.096 9.72427 4.62326 9.65997 1.33316C9.64426 0.525739 7.40621 -0.32084 6.35004 0.121789ZM96.0224 15.9566C95.9409 17.7157 95.5514 19.0905 95.0682 20.0604C94.1327 21.938 92.1915 22.5208 91.3671 19.822C90.918 18.3508 90.8969 15.8937 91.2197 13.8406C91.5484 11.7493 92.4666 10.1698 93.9864 10.3122C95.4857 10.4531 96.1875 12.3846 96.0224 15.9566ZM70.7483 26.8702C70.728 29.7929 70.2679 32.3554 69.2816 33.0999C67.8824 34.1554 66.0019 33.3634 66.3914 31.2308C66.7359 29.3435 68.3654 27.4161 70.7524 25.0611C70.7524 25.0611 70.7572 25.5982 70.7483 26.8702ZM70.3663 15.9394C70.2808 17.5417 69.8654 19.151 69.4122 20.0604C68.4766 21.938 66.5214 22.5249 65.7111 19.822C65.157 17.9751 65.2898 15.5853 65.5637 14.0792C65.9195 12.1252 66.782 10.3124 68.3304 10.3124C69.8359 10.3124 70.5786 11.9642 70.3663 15.9394ZM55.7253 15.9152C55.6334 17.6118 55.3025 19.0301 54.7713 20.0604C53.8102 21.9252 51.9086 22.5165 51.0703 19.822C50.4657 17.8792 50.6714 15.2301 50.9228 13.799C51.2961 11.6753 52.2306 10.1698 53.6896 10.3124C55.1881 10.4589 55.9165 12.3849 55.7253 15.9152ZM122.821 17.897C122.455 17.897 122.288 18.2746 122.149 18.9099C121.67 21.1204 121.165 21.6191 120.515 21.6191C119.789 21.6191 119.136 20.525 118.968 18.3344C118.836 16.6117 118.858 13.4405 119.026 10.2861C119.061 9.63794 118.882 8.9966 117.144 8.36517C116.396 8.09346 115.308 7.69337 114.767 9.00023C113.237 12.6926 112.639 15.6239 112.498 16.8143C112.491 16.8759 112.415 16.8887 112.402 16.7447C112.312 15.791 112.111 14.0577 112.086 10.4166C112.081 9.70611 111.931 9.10152 111.147 8.60643C110.638 8.28492 109.093 7.71682 108.537 8.39297C108.055 8.9456 107.496 10.4333 106.916 12.197C106.445 13.6305 106.117 14.5999 106.117 14.5999C106.117 14.5999 106.123 10.7325 106.129 9.26542C106.131 8.71207 105.751 8.52762 105.637 8.49426C105.122 8.34487 104.107 8.09515 103.676 8.09515C103.144 8.09515 103.014 8.39201 103.014 8.82521C103.014 8.88202 102.93 13.917 102.93 17.4377C102.93 17.5908 102.93 17.7576 102.931 17.935C102.637 19.5532 101.683 21.7497 100.646 21.7497C99.6076 21.7497 99.1179 20.8315 99.1179 16.6342C99.1179 14.1856 99.1913 13.1207 99.2274 11.3497C99.2484 10.3296 99.289 9.54632 99.2866 9.36864C99.2788 8.82352 98.3365 8.54866 97.8978 8.44712C97.4571 8.34487 97.0742 8.30498 96.7751 8.32214C96.3518 8.34632 96.0523 8.6236 96.0523 9.00555C96.0523 9.21054 96.0547 9.59975 96.0547 9.59975C95.5096 8.74302 94.6328 8.14688 94.0495 7.97404C92.4782 7.50747 90.8387 7.92085 89.6019 9.65148C88.619 11.0263 88.0265 12.5838 87.7932 14.8211C87.6228 16.457 87.6784 18.1156 87.9816 19.5184C87.6153 21.1013 86.9358 21.7497 86.1915 21.7497C85.1109 21.7497 84.3276 19.9864 84.4185 16.9361C84.4785 14.9299 84.88 13.522 85.3188 11.4851C85.5059 10.6168 85.3538 10.1623 84.9726 9.72666C84.6228 9.32706 83.8775 9.12279 82.8066 9.37372C82.0436 9.55285 80.9527 9.74552 79.9545 9.89346C79.9545 9.89346 80.015 9.65293 80.0643 9.2294C80.3239 7.0078 77.9096 7.18789 77.1392 7.8974C76.6796 8.32118 76.3666 8.82086 76.2479 9.71917C76.0593 11.145 77.2221 11.8175 77.2221 11.8175C76.8409 13.5638 75.9056 15.8449 74.9401 17.4943C74.423 18.3779 74.0275 19.0327 73.5167 19.7287C73.5 16.9357 73.5183 14.1425 73.5713 11.35C73.5924 10.3298 73.6332 9.56735 73.6311 9.38943C73.6252 8.99104 73.3924 8.8402 72.9082 8.6497C72.4799 8.48097 71.9737 8.36445 71.4484 8.32335C70.7855 8.2721 70.3862 8.62335 70.3968 9.03915C70.3987 9.11772 70.3987 9.59975 70.3987 9.59975C69.8536 8.74302 68.9768 8.14688 68.3935 7.97404C66.8222 7.50747 65.1827 7.92085 63.9459 9.65148C62.9632 11.0263 62.3197 12.9558 62.1372 14.8042C61.9675 16.5266 61.9987 17.9904 62.2303 19.2237C61.9806 20.4585 61.2621 21.7499 60.4501 21.7499C59.4116 21.7499 58.8208 20.8315 58.8208 16.6342C58.8208 14.1856 58.8942 13.1207 58.9305 11.3497C58.9515 10.3298 58.9919 9.54632 58.9897 9.36864C58.982 8.82352 58.0394 8.5489 57.6007 8.44712C57.1419 8.34076 56.7457 8.30208 56.4413 8.32456C56.04 8.3543 55.7577 8.71377 55.7577 8.98186V9.59975C55.2125 8.74302 54.3357 8.14688 53.7524 7.97404C52.1811 7.50747 50.5508 7.92762 49.3048 9.65148C48.4926 10.7753 47.8348 12.0213 47.4964 14.7795C47.3985 15.5766 47.3552 16.3233 47.361 17.0207C47.0371 19.002 45.606 21.2855 44.4357 21.2855C43.7508 21.2855 43.0984 19.9569 43.0984 17.1259C43.0984 13.3547 43.3319 7.98516 43.3715 7.46783C43.3715 7.46783 44.8503 7.44269 45.1365 7.4393C45.8743 7.43108 46.5422 7.44873 47.5249 7.39821C48.0176 7.37331 48.4924 5.60449 47.9837 5.38571C47.7531 5.2866 46.124 5.20005 45.4781 5.18627C44.9351 5.17419 43.4233 5.06202 43.4233 5.06202C43.4233 5.06202 43.5589 1.49802 43.5906 1.12163C43.6171 0.807609 43.211 0.646126 42.9785 0.548221C42.4123 0.308897 41.9059 0.19407 41.3056 0.0702979C40.476 -0.100855 40.0998 0.0666717 40.0263 0.766513C39.9156 1.82897 39.8583 4.94091 39.8583 4.94091C39.2496 4.94091 37.1701 4.82197 36.5614 4.82197C35.9958 4.82197 35.3851 7.25486 36.1674 7.28483C37.0672 7.31964 38.6353 7.3501 39.6748 7.38104C39.6748 7.38104 39.6284 12.8391 39.6284 14.5245C39.6284 14.7034 39.6294 14.8762 39.6304 15.0438C39.0582 18.0256 37.043 19.6366 37.043 19.6366C37.4757 17.6638 36.5917 16.1821 34.9993 14.928C34.4126 14.466 33.2544 13.5911 31.9587 12.6324C31.9587 12.6324 32.7091 11.8927 33.3748 10.4045C33.8462 9.35003 33.8667 8.14398 32.709 7.87782C30.7964 7.43785 29.2195 8.84261 28.7491 10.3424C28.3845 11.5042 28.5789 12.366 29.293 13.2614C29.345 13.3269 29.4018 13.3939 29.4598 13.4611C29.0283 14.2932 28.4351 15.4136 27.9327 16.2824C26.5384 18.695 25.4851 20.6029 24.689 20.6029C24.0528 20.6029 24.0612 18.6655 24.0612 16.8518C24.0612 15.2882 24.1768 12.9372 24.2691 10.5036C24.2996 9.69862 23.8968 9.24004 23.2224 8.82472C22.8124 8.57235 21.9375 8.07629 21.4308 8.07629C20.6723 8.07629 18.484 8.17952 16.4166 14.1602C16.156 14.914 15.644 16.2875 15.644 16.2875L15.6883 9.09548C15.6883 8.92674 15.5983 8.76381 15.3926 8.65236C15.0443 8.46308 14.1138 8.07629 13.2863 8.07629C12.8923 8.07629 12.6953 8.25953 12.6953 8.62505L12.6232 19.8771C12.6232 20.7322 12.6455 21.7296 12.7301 22.1657C12.8142 22.6023 12.9508 22.9577 13.1195 23.1689C13.2885 23.38 13.4836 23.5412 13.8054 23.6075C14.1049 23.6691 15.7448 23.8797 15.8302 23.2531C15.9322 22.5017 15.9363 21.6895 16.7974 18.6595C18.1381 13.9422 19.8859 11.6408 20.7078 10.8232C20.8516 10.6806 21.0155 10.6719 21.0076 10.9056C20.9727 11.9398 20.8492 14.5245 20.7663 16.7195C20.5437 22.595 21.6124 23.6841 23.14 23.6841C24.3085 23.6841 25.9558 22.523 27.7214 19.5839C28.7053 17.946 29.6846 16.3054 30.6593 14.6621C31.1943 15.1574 31.795 15.6904 32.395 16.26C33.7899 17.5837 34.2477 18.8418 33.9439 20.035C33.7118 20.9471 32.8364 21.8872 31.2789 20.9737C30.8249 20.707 30.631 20.5008 30.1746 20.2004C29.9295 20.0391 29.5551 19.9908 29.3305 20.16C28.7474 20.5995 28.4138 21.1589 28.2233 21.8512C28.0381 22.5249 28.7128 22.881 29.4124 23.1926C30.0146 23.4607 31.3091 23.7037 32.1344 23.7312C35.3508 23.8388 37.9275 22.1783 39.7212 17.8949C40.0423 21.5942 41.4086 23.6875 43.7827 23.6875C45.37 23.6875 46.9614 21.6358 47.6574 19.6175C47.8571 20.4402 48.1529 21.1557 48.5349 21.7608C50.3642 24.6593 53.9129 24.0356 55.6955 21.5742C56.2467 20.8137 56.3306 20.5405 56.3306 20.5405C56.5907 22.8643 58.4623 23.6764 59.5337 23.6764C60.7339 23.6764 61.9728 23.109 62.8414 21.1538C62.9432 21.366 63.0544 21.5689 63.1757 21.7608C65.005 24.6593 68.554 24.0356 70.3366 21.5742C70.4207 21.4586 70.4937 21.3542 70.5573 21.2599L70.6095 22.7865L68.9683 24.2918C66.2173 26.8132 64.1277 28.7254 63.974 30.9525C63.7781 33.7923 66.08 34.8477 67.8239 34.986C69.6725 35.1327 71.2586 34.1106 72.2318 32.6803C73.0886 31.421 73.6494 28.7111 73.6081 26.0348C73.5919 24.9629 73.5646 23.6002 73.5435 22.1394C74.5093 21.0179 75.5974 19.6004 76.5991 17.9415C77.6908 16.1335 78.8609 13.7055 79.4599 11.8158C79.4599 11.8158 80.4764 11.8247 81.5614 11.7537C81.9083 11.7309 82.0081 11.802 81.9438 12.0561C81.8665 12.3636 80.5731 17.3514 81.7536 20.6742C82.5612 22.949 84.3823 23.6805 85.4619 23.6805C86.7259 23.6805 87.9349 22.7261 88.5828 21.309C88.6611 21.4668 88.7426 21.6196 88.8318 21.761C90.661 24.6595 94.1974 24.0317 95.9926 21.5742C96.3978 21.0196 96.6277 20.5405 96.6277 20.5405C97.0128 22.9458 98.8834 23.6887 99.9548 23.6887C101.071 23.6887 102.13 23.2311 102.989 21.1978C103.025 22.0932 103.082 22.8252 103.171 23.0558C103.225 23.1972 103.542 23.3742 103.773 23.4598C104.794 23.8383 105.835 23.6594 106.22 23.5816C106.487 23.5274 106.695 23.3133 106.724 22.7606C106.799 21.309 106.753 18.8701 107.193 17.0572C107.932 14.0154 108.621 12.8355 108.948 12.2514C109.131 11.9239 109.337 11.8699 109.344 12.2164C109.36 12.9174 109.395 14.9754 109.681 17.7409C109.891 19.7744 110.171 20.9766 110.387 21.3573C111.003 22.4452 111.764 22.4967 112.383 22.4967C112.777 22.4967 113.601 22.3879 113.527 21.6955C113.491 21.3581 113.554 19.2723 114.282 16.2754C114.758 14.3183 115.551 12.5502 115.837 11.9035C115.942 11.6652 115.991 11.853 115.989 11.8898C115.929 13.2375 115.794 17.6459 116.343 20.057C117.088 23.3232 119.241 23.6887 119.991 23.6887C121.593 23.6887 122.903 22.4703 123.344 19.2643C123.45 18.4927 123.293 17.897 122.821 17.897Z" fill="#C837AB"/>
</svg>
