<svg width="50" height="51" viewBox="0 0 50 51" fill="none" xmlns="http://www.w3.org/2000/svg">
<path d="M32.4896 9.25972H17.5105C12.6771 9.25972 8.75977 13.1778 8.75977 18.0104V32.9896C8.75977 37.8229 12.6778 41.7403 17.5112 41.7403H32.4889C37.3223 41.7403 41.2403 37.8222 41.2403 32.9889V18.0104C41.2403 13.1771 37.323 9.25972 32.4896 9.25972Z" fill="white"/>
<path d="M32.4896 9.25972H17.5105C12.6771 9.25972 8.75977 13.1778 8.75977 18.0104V32.9896C8.75977 37.8229 12.6778 41.7403 17.5112 41.7403H32.4889C37.3223 41.7403 41.2403 37.8222 41.2403 32.9889V18.0104C41.2403 13.1771 37.323 9.25972 32.4896 9.25972Z" stroke="black" stroke-width="2" stroke-miterlimit="10"/>
<path d="M24.9999 33.3403C29.33 33.3403 32.8402 29.8301 32.8402 25.5C32.8402 21.1699 29.33 17.6597 24.9999 17.6597C20.6699 17.6597 17.1597 21.1699 17.1597 25.5C17.1597 29.8301 20.6699 33.3403 24.9999 33.3403Z" stroke="black" stroke-width="2" stroke-miterlimit="10"/>
<path d="M34.5202 17.6597C35.448 17.6597 36.2001 16.9076 36.2001 15.9799C36.2001 15.0521 35.448 14.3 34.5202 14.3C33.5924 14.3 32.8403 15.0521 32.8403 15.9799C32.8403 16.9076 33.5924 17.6597 34.5202 17.6597Z" fill="black"/>
</svg>
